<svg id="Layer_1" data-name="Layer 1" xmlns="http://www.w3.org/2000/svg" viewBox="0 0 850 850"><defs><style>.cls-1{fill:#fff;}</style></defs><title>in your community_white</title><path class="cls-1" d="M471.43,264.16a38.27,38.27,0,1,1-38.28-38.26h0A38.28,38.28,0,0,1,471.43,264.16Z"/><path class="cls-1" d="M471.27,372.7h4.11V437c11.19-13.83,18.12-32.9,18.12-54,0-42.25-27.76-76.5-62-76.5s-62,34.25-62,76.5c0,22.72,8,43.12,20.78,57.13V372.7h4.22V530.5c0,18.8,16.31,34.14,36.77,35V474.7h4.11v90.73c18.77-1,33.9-14.3,35.89-31.15Z"/><path class="cls-1" d="M648.43,359.16a38.27,38.27,0,1,1-38.28-38.26h0A38.28,38.28,0,0,1,648.43,359.16Z"/><path class="cls-1" d="M648.27,467.7h4.11V532c11.19-13.83,18.12-32.9,18.12-54,0-42.25-27.76-76.5-62-76.5s-62,34.25-62,76.5c0,22.72,8,43.12,20.78,57.13V467.7h4.22V625.5c0,18.8,16.31,34.14,36.77,35V569.7h4.11v90.73c18.77-1,33.9-14.3,35.89-31.15Z"/><path class="cls-1" d="M297.43,359.16a38.27,38.27,0,1,1-38.28-38.26A38.26,38.26,0,0,1,297.43,359.16Z"/><path class="cls-1" d="M297.27,467.7h4.11V532c11.19-13.83,18.12-32.9,18.12-54,0-42.25-27.76-76.5-62-76.5s-62,34.25-62,76.5c0,22.72,8,43.12,20.78,57.13V467.7h4.22V625.5c0,18.8,16.31,34.14,36.77,35V569.7h4.11v90.73c18.77-1,33.9-14.3,35.89-31.15Z"/></svg>