<svg id="Layer_1" data-name="Layer 1" xmlns="http://www.w3.org/2000/svg" viewBox="0 0 850 850"><defs><style>.cls-1{fill:#fff;}</style></defs><title>Icons-SoilLife</title><path class="cls-1" d="M429.53,318.91c-173.28-41.46-242.7,0-242.7,0V550.78s105.83-47.6,236.51-7.73c153.52,46.82,236.52-27.21,236.52-27.21V291.71S546.7,347,429.53,318.91ZM505.93,439c-5.68,50.65-41,88.25-78.82,84s-63.94-48.74-58.27-99.37,41-88.25,78.83-84S511.61,388.37,505.93,439Z"/><path class="cls-1" d="M463.21,454.59c-1.55,12.64-11.35,22.07-26.61,22.38l-.83,7.41-11.29-1.28.84-7.38A40.9,40.9,0,0,1,401.8,459l12.85-12.78c4.26,6.31,11.52,11.71,18.16,12.44,6.26.71,10.44-2.5,11-7.14,1.71-15.3-36.82-15.67-33.37-44.24,1.32-11.77,11.22-20.82,25-21.42l.9-7.91,11.26,1.29-.87,7.76a41,41,0,0,1,20.89,14.14l-12.1,12.73c-3.57-4.33-9.64-9.07-15.52-9.74-5.66-.62-9.63,2.09-10.13,6.49C428.27,424.4,466.66,426.29,463.21,454.59Z"/></svg>