<svg id="Layer_1" data-name="Layer 1" xmlns="http://www.w3.org/2000/svg" viewBox="0 0 850 850"><defs><style>.cls-1{fill:#5f5353;stroke-width:13.44px;}.cls-1,.cls-2,.cls-4{stroke:#fff;stroke-miterlimit:10;}.cls-2,.cls-4{fill:none;}.cls-2{stroke-width:8.96px;}.cls-3{fill:#fff;}.cls-4{stroke-width:11.2px;}</style></defs><title>Icons-SoilLife</title><circle class="cls-1" cx="422.07" cy="425.14" r="375.18" transform="translate(-177 422.97) rotate(-45)"/><path class="cls-2" d="M423,278.11s0-24.92-29-24.92H247.85V571.84H403.41s19.06,1.51,19.06,15.1c0,0,5.1-15.1,18.69-15.1H596.71V253.19h-145S423,253.19,423,278.11Z"/><line class="cls-2" x1="446.45" y1="451.71" x2="558.95" y2="451.71"/><line class="cls-2" x1="446.45" y1="482.92" x2="558.95" y2="482.92"/><line class="cls-2" x1="446.45" y1="514.09" x2="558.95" y2="514.09"/><line class="cls-2" x1="446.45" y1="358.15" x2="558.95" y2="358.15"/><line class="cls-2" x1="446.45" y1="389.34" x2="558.95" y2="389.34"/><line class="cls-2" x1="446.45" y1="420.54" x2="558.95" y2="420.54"/><rect class="cls-3" x="289.46" y="307.79" width="95.73" height="63.41"/><line class="cls-4" x1="241.16" y1="271.33" x2="241.16" y2="575.98"/><line class="cls-4" x1="602.98" y1="271.33" x2="602.98" y2="575.98"/><line class="cls-4" x1="608.25" y1="581.08" x2="235.9" y2="581.08"/><ellipse class="cls-3" cx="422.07" cy="586.76" rx="27.24" ry="10.34"/></svg>