<svg id="Layer_1" data-name="Layer 1" xmlns="http://www.w3.org/2000/svg" viewBox="0 0 850 850"><defs><style>.cls-1,.cls-3{fill:none;stroke:#fff;stroke-linecap:round;stroke-linejoin:round;}.cls-1{stroke-width:8.96px;}.cls-2{fill:#fff;}.cls-3{stroke-width:11.2px;}</style></defs><title>Icons-SoilLife</title><path class="cls-1" d="M423,278.11s0-24.92-29-24.92H247.85V571.84H403.41s19.06,1.51,19.06,15.1c0,0,5.1-15.1,18.69-15.1H596.71V253.19h-145S423,253.19,423,278.11Z"/><line class="cls-1" x1="446.45" y1="451.71" x2="558.95" y2="451.71"/><line class="cls-1" x1="446.45" y1="482.92" x2="558.95" y2="482.92"/><line class="cls-1" x1="446.45" y1="514.09" x2="558.95" y2="514.09"/><line class="cls-1" x1="446.45" y1="358.15" x2="558.95" y2="358.15"/><line class="cls-1" x1="446.45" y1="389.34" x2="558.95" y2="389.34"/><line class="cls-1" x1="446.45" y1="420.54" x2="558.95" y2="420.54"/><rect class="cls-2" x="289.46" y="307.79" width="95.73" height="63.41"/><line class="cls-3" x1="241.16" y1="271.33" x2="241.16" y2="575.98"/><line class="cls-3" x1="602.98" y1="271.33" x2="602.98" y2="575.98"/><line class="cls-3" x1="604.25" y1="579.08" x2="241.9" y2="579.08"/><ellipse class="cls-2" cx="422.07" cy="586.76" rx="27.24" ry="10.34"/></svg>