<svg id="Layer_1" data-name="Layer 1" xmlns="http://www.w3.org/2000/svg" viewBox="0 0 850 850"><defs><style>.cls-1{fill:#5f5353;stroke:#fff;stroke-miterlimit:10;stroke-width:13.44px;}.cls-2{fill:#fff;}</style></defs><title>Icons-SoilLife</title><circle class="cls-1" cx="427.2" cy="425.14" r="375.18" transform="translate(-175.5 426.6) rotate(-45)"/><path class="cls-2" d="M325.5,287.05l124.28,51.43s8.37,5.51,13-4,9-20.9,9-20.9,3.46-8.07-5.49-12.38-124.56-51.69-124.56-51.69-8.38-3.46-12.71,5.2a193.06,193.06,0,0,0-7.81,18.22S316,283.1,325.5,287.05Z"/><path class="cls-2" d="M258.74,449.19,383,500.61s8.37,5.51,13-4,9-20.89,9-20.89,3.47-8.09-5.49-12.39-124.56-51.68-124.56-51.68-8.38-3.48-12.72,5.19a196.85,196.85,0,0,0-7.8,18.21S249.21,445.24,258.74,449.19Z"/><path class="cls-2" d="M611.92,440.22,427.15,380.87l13.38-32L326.08,301.16,285,402l113.86,46.4L413,414.84l174.68,91s46.61,21.7,58.4-13.7C657.87,456.56,611.92,440.22,611.92,440.22Z"/><path class="cls-2" d="M427.81,571.43V551.19s-1.73-10.39-12.14-10.39H233.6c-10.41,0-12.14,10.39-12.14,10.39v20.24s-15-.28-15,16.19a13.89,13.89,0,0,0,10.41,13.87H432.44a13.88,13.88,0,0,0,10.39-13.87C442.83,571.15,427.81,571.43,427.81,571.43Z"/></svg>