<svg id="Layer_1" data-name="Layer 1" xmlns="http://www.w3.org/2000/svg" viewBox="0 0 850 850"><defs><style>.cls-1{fill:#5f5353;}.cls-1,.cls-2,.cls-3{stroke:#fff;stroke-miterlimit:10;}.cls-1,.cls-2{stroke-width:13.44px;}.cls-2{fill:none;}.cls-3{fill:#fff;stroke-width:41.22px;}</style></defs><title>Icons-SoilLife</title><circle class="cls-1" cx="419.85" cy="425.14" r="375.18" transform="translate(-177.65 421.4) rotate(-45)"/><polyline class="cls-2" points="519.01 309.39 318.3 437.23 526.79 539.27"/><path class="cls-3" d="M557.47,304.29A32.37,32.37,0,1,1,524,273,32.39,32.39,0,0,1,557.47,304.29Z"/><path class="cls-3" d="M565.57,543.83a32.37,32.37,0,1,1-33.45-31.26A32.37,32.37,0,0,1,565.57,543.83Z"/><path class="cls-3" d="M338.82,434a32.36,32.36,0,1,1-33.45-31.26A32.36,32.36,0,0,1,338.82,434Z"/></svg>