<svg xmlns="http://www.w3.org/2000/svg" viewBox="0 0 409.17 118.25"><defs><style>.cls-1{fill:none;stroke:#5d5153;stroke-miterlimit:10;stroke-width:3px;}.cls-2{fill:#5d5153;}.cls-3{fill:#eb6b7c;}</style></defs><title>Asset 1healthysoils_arrows</title><g id="Layer_2" data-name="Layer 2"><g id="Layer_1-2" data-name="Layer 1"><path class="cls-1" d="M137.13,83.75a278.9,278.9,0,0,1-76.76-31.2A279.77,279.77,0,0,1,8.61,13.21"/><path class="cls-2" d="M10.58,15,9.11,21.2l-.22,0-3.78-8.7L0,4.53,8,9.59l8.72,3.73.07.2Z"/><path class="cls-1" d="M408.07,1A278.41,278.41,0,0,1,271.75,82.66q-3.72,1-7.47,1.81"/><path class="cls-2" d="M266.9,83.83l4.34,4.61-.15.16L261.73,87l-9.43-.07L260.89,83l7.9-5.25.2.05Z"/><path class="cls-3" d="M193.69,88.83,212.15,75.1,214.89,73l-1.68-2.73,4.12-6.77,7.11,9.12L216.88,75l-3.06,2.37a74.62,74.62,0,0,1,8.62,15.81c-40.74,37.56-61,21.8-61,21.8-7.92-28,35.68-54.37,35.68-54.37a63.65,63.65,0,0,1,13,12C207.79,74.22,197.88,81.27,193.69,88.83Z"/><path class="cls-3" d="M227.4,70.32l-7.2-9.27L235.86,48.8s5.85-4,8.82.65S243.33,58,243.33,58Z"/></g></g></svg>