<svg xmlns="http://www.w3.org/2000/svg" viewBox="0 0 409.17 146.32"><defs><style>.cls-1,.cls-4,.cls-5{fill:none;stroke-width:3px;}.cls-1{stroke:#5d5153;stroke-miterlimit:10;}.cls-2{fill:#5d5153;}.cls-3{fill:#3daaa2;}.cls-4{stroke:#fff;}.cls-4,.cls-5{stroke-linecap:round;stroke-linejoin:round;}.cls-5{stroke:#3daaa2;}</style></defs><title>Asset 2healthyplants_arrows</title><g id="Layer_2" data-name="Layer 2"><g id="Layer_1-2" data-name="Layer 1"><path class="cls-1" d="M137.13,83.75a278.9,278.9,0,0,1-76.76-31.2A279.77,279.77,0,0,1,8.61,13.21"/><path class="cls-2" d="M10.58,15,9.11,21.2l-.22,0-3.78-8.7L0,4.53,8,9.59l8.72,3.73.07.2Z"/><path class="cls-1" d="M408.07,1A278.41,278.41,0,0,1,271.75,82.66q-3.72,1-7.47,1.81"/><path class="cls-2" d="M266.9,83.83l4.34,4.61-.15.16L261.73,87l-9.43-.07L260.89,83l7.9-5.25.2.05Z"/><path class="cls-3" d="M206.18,88.33s-7-12.46,9.12-19.73c11.9-5.38,11.49-9.24,11.49-9.24s7.73,17.28-.27,27.49-16.83,6-16.83,6"/><path class="cls-4" d="M218.64,81.85s-9.27,3.08-11.58,16.4"/><text></text><path class="cls-3" d="M191.27,72.44S203,52.66,177.21,40C158.15,30.69,159,24.47,159,24.47S145.83,52,158.41,69s27,10.52,27,10.52"/><path class="cls-5" d="M170.62,60.12S175.31,73,194.29,83.93c25.15,14.45,8.91,49.59,8.91,49.59"/><path class="cls-5" d="M203.19,135"/><path class="cls-4" d="M170.15,60.5s3.5,7.95,13.3,15.42"/></g></g></svg>