<svg xmlns="http://www.w3.org/2000/svg" xmlns:xlink="http://www.w3.org/1999/xlink" viewBox="0 0 409.17 144.67"><defs><style>.cls-1,.cls-2,.cls-7{fill:none;}.cls-2{stroke:#5d5153;}.cls-2,.cls-7{stroke-miterlimit:10;stroke-width:3px;}.cls-3{fill:#5d5153;}.cls-4{fill:#fecf0a;}.cls-5{clip-path:url(#clip-path);}.cls-6{fill:#fff;}.cls-7{stroke:#fecf0a;}</style><clipPath id="clip-path"><circle class="cls-1" cx="195.38" cy="88.24" r="38.01"/></clipPath></defs><title>Asset 7healthyplanet_arrows</title><g id="Layer_2" data-name="Layer 2"><g id="Layer_1-2" data-name="Layer 1"><path class="cls-2" d="M137.13,83.75a278.9,278.9,0,0,1-76.76-31.2A279.76,279.76,0,0,1,8.61,13.21"/><path class="cls-3" d="M10.58,15,9.11,21.2l-.22,0-3.78-8.7L0,4.53,8,9.59l8.72,3.73.07.2Z"/><path class="cls-2" d="M408.07,1A278.41,278.41,0,0,1,271.75,82.66q-3.72,1-7.47,1.81"/><path class="cls-3" d="M266.9,83.83l4.34,4.61-.15.16L261.73,87l-9.43-.07L260.89,83l7.9-5.25.2.05Z"/><circle class="cls-4" cx="195.56" cy="88.24" r="38.01"/><g class="cls-5"><path class="cls-6" d="M188.07,88.93a7.42,7.42,0,0,0,2,6.73c2,1.44,5.94.81,6.17,3.63,0,2.89-5.66,4.21-4.56,7.23.39,1.44,4.28,1.71,4.73,3.36s-1,2.27-1.38,3.92c-.93,3.58,1,6.6,4.93,7.07,2.87.54,5.94-1.18,8.84-1.53.51-.14,2.2.06,2.45,0-.25.07,3.29-.9,2.73-1,1.44.27,2.62-1.38,2.79,1.23.31,2.13-3.52,4.07-4,6.2-.34.76.62,2.27.48,2.75-.53,1-2.05,1.45-2.39,2.21-1.6,3.1-1.23,5.44-1.15,8.74,0,.89-.22,3.16.2,3.71,1.55,2.68,1.66,1.1,4.28-.29,8.5-4.76,9.42-10.34,11.53-17.56,3-9.91,3.48-15.14-1.84-23.65-3.61-5.22-5.69-12.85-12.51-15.86-3.41-1.51-22.32-3-23.3,2.39"/><path class="cls-6" d="M179.74,51.55c.52,1.31,3.15,2.63,3.15,3.94-.26,1.05-2.89,1.84-3.41,2.89-1.05,2.36-.53,3.94,1.05,5.78,2.62,3.42,7.35,2.89,8.93,7.35.79,2.63-.26,5-1.05,7.35-1.05,2.62,1.05,2.36-1.84,3.68-2.89,1.05-6.56-2.1-9.19-1.05-2.89,1.05-1.84,2.37-1.31,5,1.05,4.73,2.1,3.15-1.31,7.09-1.58,1.84-2.63,4.73-4.73,5.51-2.63,1.05-2.89-1-5-1-4.73.26-7.09,6.57-12.08,2.63-8.14-6.57-3.94-28.09.26-35.71,3.94-6.83,14.18-10.77,21.27-13.13,1.84-.52,6.3-2.63,5.78.79"/></g><path class="cls-6" d="M210.07,76.18c4.72,3.35,14.77.2,18.12-4.53,3.94-5.51-8.47-8.47-11.42-11.23s-5.52-3.94-6.7,1.58c-.4,1.58.59,4.53-.2,5.91-1,1.77-2.76,1-4.33,2.16-3.94,3,1.18,5.91,4.33,6.3"/><circle class="cls-7" cx="195.38" cy="88.24" r="38.01"/></g></g></svg>