<svg xmlns="http://www.w3.org/2000/svg" viewBox="0 0 409.17 121.7"><defs><style>.cls-1{fill:none;stroke:#5d5153;stroke-miterlimit:10;stroke-width:3px;}.cls-2{fill:#5d5153;}.cls-3{fill:#eb6b7c;}.cls-4{fill:#fff;}</style></defs><title>Asset 5healthycommunities_arrows</title><g id="Layer_2" data-name="Layer 2"><g id="Layer_1-2" data-name="Layer 1"><path class="cls-1" d="M137.13,83.75a278.9,278.9,0,0,1-76.76-31.2A279.76,279.76,0,0,1,8.61,13.21"/><path class="cls-2" d="M10.58,15,9.11,21.2l-.22,0-3.78-8.7L0,4.53,8,9.59l8.72,3.73.07.2Z"/><path class="cls-1" d="M408.07,1A278.41,278.41,0,0,1,271.75,82.66q-3.72,1-7.47,1.81"/><path class="cls-2" d="M266.9,83.83l4.34,4.61-.15.16L261.73,87l-9.43-.07L260.89,83l7.9-5.25.2.05Z"/><rect class="cls-3" x="226.2" y="84.65" width="15.41" height="35.39" rx="5.76" ry="5.76"/><rect class="cls-3" x="221.25" y="69.26" width="24.62" height="29.75" rx="7.92" ry="7.92"/><circle class="cls-3" cx="233.91" cy="60.03" r="7.63"/><rect class="cls-4" x="225.76" y="84.65" width="0.44" height="15.13"/><rect class="cls-4" x="241.62" y="84.65" width="0.44" height="15.75"/><rect class="cls-4" x="233.69" y="99.01" width="0.44" height="22.69"/><rect class="cls-3" x="155.83" y="84.65" width="15.41" height="35.39" rx="5.76" ry="5.76"/><rect class="cls-3" x="150.88" y="69.26" width="24.62" height="29.75" rx="7.92" ry="7.92"/><circle class="cls-3" cx="163.54" cy="60.03" r="7.63"/><rect class="cls-4" x="155.39" y="84.65" width="0.44" height="15.13"/><rect class="cls-4" x="171.25" y="84.65" width="0.44" height="15.75"/><rect class="cls-4" x="163.31" y="99.01" width="0.44" height="22.69"/><rect class="cls-3" x="192.07" y="74.53" width="15.41" height="35.39" rx="5.76" ry="5.76"/><rect class="cls-3" x="187.12" y="59.15" width="24.62" height="29.75" rx="7.92" ry="7.92"/><circle class="cls-3" cx="199.78" cy="49.91" r="7.63"/><rect class="cls-4" x="191.63" y="74.53" width="0.44" height="15.13"/><rect class="cls-4" x="207.48" y="74.53" width="0.44" height="15.75"/><rect class="cls-4" x="199.56" y="88.9" width="0.44" height="22.69"/></g></g></svg>