<svg xmlns="http://www.w3.org/2000/svg" viewBox="0 0 409.17 157.31"><defs><style>.cls-1{fill:#fff;}.cls-2{fill:none;stroke:#5d5153;stroke-miterlimit:10;stroke-width:3px;}.cls-3{fill:#5d5153;}.cls-4{fill:#fecf0a;}</style></defs><title>Asset 3healthypeople_arrows</title><g id="Layer_2" data-name="Layer 2"><g id="Layer_1-2" data-name="Layer 1"><rect class="cls-1" width="408.07" height="12.89"/><path class="cls-2" d="M137.13,92.11a278.9,278.9,0,0,1-76.76-31.2A279.77,279.77,0,0,1,8.61,21.57"/><path class="cls-3" d="M10.58,23.41,9.11,29.56l-.22,0-3.78-8.7L0,12.89l8,5.05,8.72,3.73.07.2Z"/><path class="cls-2" d="M408.07,9.37A278.41,278.41,0,0,1,271.75,91q-3.72,1-7.47,1.81"/><path class="cls-3" d="M266.9,92.19l4.34,4.61-.15.16-9.35-1.6-9.43-.07,8.59-3.89,7.9-5.25.2.05Z"/><rect class="cls-1" width="408.07" height="12.89"/><circle class="cls-4" cx="199.73" cy="59.71" r="12.07"/><rect class="cls-4" x="179.71" y="74.33" width="38.96" height="47.08" rx="10.01" ry="10.01"/><rect class="cls-4" x="187.66" y="107.59" width="24.14" height="47.08" rx="10.01" ry="10.01"/><rect class="cls-1" x="186.96" y="99.65" width="0.7" height="23.95"/><rect class="cls-1" x="211.8" y="99.65" width="0.7" height="24.92"/><rect class="cls-1" x="199.38" y="121.4" width="0.7" height="35.91"/></g></g></svg>