<svg xmlns="http://www.w3.org/2000/svg" viewBox="0 0 409.17 109.86"><defs><style>.cls-1{fill:none;stroke:#5d5153;stroke-miterlimit:10;stroke-width:3px;}.cls-2{fill:#5d5153;}.cls-3{fill:#3daaa2;}.cls-4{fill:#fff;}</style></defs><title>Asset 6healthyeconomies_arrows</title><g id="Layer_2" data-name="Layer 2"><g id="Layer_1-2" data-name="Layer 1"><path class="cls-1" d="M137.13,83.75a278.9,278.9,0,0,1-76.76-31.2A279.77,279.77,0,0,1,8.61,13.21"/><path class="cls-2" d="M10.58,15,9.11,21.2l-.22,0-3.78-8.7L0,4.53,8,9.59l8.72,3.73.07.2Z"/><path class="cls-1" d="M408.07,1A278.41,278.41,0,0,1,271.75,82.66q-3.72,1-7.47,1.81"/><path class="cls-2" d="M266.9,83.83l4.34,4.61-.15.16L261.73,87l-9.43-.07L260.89,83l7.9-5.25.2.05Z"/><path class="cls-3" d="M161.39,70.26s11.47-6.85,40.11,0c19.36,4.63,38.06-4.5,38.06-4.5v37s-13.72,12.23-39.09,4.5a60.09,60.09,0,0,0-39.08,1.28Z"/><ellipse class="cls-4" cx="202.8" cy="88.83" rx="15.25" ry="11.4" transform="translate(91.92 280.47) rotate(-83.6)"/><path class="cls-3" d="M207.07,92.68a4.21,4.21,0,0,1-4.4,3.7l-.14,1.22-1.86-.21.14-1.22a6.73,6.73,0,0,1-3.88-2.76L199,91.3a4.66,4.66,0,0,0,3,2.05,1.46,1.46,0,0,0,1.81-1.18c.28-2.53-6.09-2.59-5.52-7.31a4.11,4.11,0,0,1,4.13-3.54l.15-1.31,1.86.21-.14,1.29a6.76,6.76,0,0,1,3.45,2.33l-2,2.11a4.4,4.4,0,0,0-2.57-1.61c-.93-.11-1.59.35-1.67,1.07C201.29,87.69,207.63,88,207.07,92.68Z"/></g></g></svg>