<svg id="Layer_1" data-name="Layer 1" xmlns="http://www.w3.org/2000/svg" viewBox="0 0 850 850"><defs><style>.cls-1{fill:#5f5353;stroke:#fff;stroke-miterlimit:10;stroke-width:13.44px;}.cls-2{fill:#fff;}</style></defs><title>Icons-SoilLife</title><circle class="cls-1" cx="422.07" cy="427.5" r="386.86"/><path class="cls-2" d="M586.11,470.1a65.22,65.22,0,0,0-30.39-9H346.11A73.16,73.16,0,0,0,313.83,470c-26.8,14.83-32.43,42-32.43,62.25,0,20.88,5.61,49,32.36,64.32a71.25,71.25,0,0,0,32.35,9.22h205.6a71.25,71.25,0,0,0,32.34-9.22c26.76-15.34,32.37-43.44,32.37-64.32C616.42,512.11,611.16,485,586.11,470.1Zm-21.54,113h-4.83a4.48,4.48,0,0,1,0-9h4.83a4.48,4.48,0,0,1,0,9Zm-92.37-9h67.47a4.48,4.48,0,0,1,0,9H472.2a4.48,4.48,0,1,1,0-9Zm-154,14.69c-18.49-10.6-27.86-29.62-27.86-56.54,0-61.26,53.48-62.18,55.75-62.18H449.67l-.75,126.76H346.11A62.58,62.58,0,0,1,318.22,588.82Z"/><path class="cls-2" d="M481.6,274.58c-14.6-13.92-37.89-28.86-65.93-21a65.18,65.18,0,0,0-27.45,15.82L243.6,421.16a73.18,73.18,0,0,0-15.84,29.51c-7.76,29.63,8.06,52.47,22.69,66.42,12,11.47,29.84,23.52,51.53,23.52A60.63,60.63,0,0,0,319.34,538a71.3,71.3,0,0,0,29-17L490.18,372.16a71.2,71.2,0,0,0,15.64-29.78C513.18,312.44,496.71,289,481.6,274.58Zm5.61,72.67-2.37,2.47a4.48,4.48,0,1,1-6.47-6.2l2.37-2.47a4.48,4.48,0,1,1,6.47,6.2Zm-71,61.53,46.54-48.84a4.48,4.48,0,0,1,6.49,6.18L422.68,415a4.48,4.48,0,0,1-6.49-6.18Zm-74.34,106a62.57,62.57,0,0,1-25.06,14.64c-20.43,6.07-40.67-.27-60.16-18.85-44.35-42.26-8.11-81.61-6.55-83.26l71.46-75,91.25,88Z"/></svg>