<svg id="Layer_1" data-name="Layer 1" xmlns="http://www.w3.org/2000/svg" viewBox="0 0 850 850"><defs><style>.cls-1{fill:#5f5353;stroke:#fff;stroke-miterlimit:10;stroke-width:13.44px;}.cls-2{fill:#fff;}</style></defs><title>Icons-SoilLife</title><circle class="cls-1" cx="426.14" cy="427.5" r="386.86"/><g id="white_imagery_text" data-name="white imagery + text"><path class="cls-2" d="M419.48,496l10.69-.77-1.05,170.06c-6.55,5.15-14.37-.93-18.55-4.25Z"/><path class="cls-2" d="M332.66,417.27c4.51,28.92,38,108.24,71.81,81.46C435.15,469.74,361,414.33,332.66,417.27Z"/><path class="cls-2" d="M343.4,338.65c-1.94,30.87,39.13,106.15,72,85.41C445.78,395.39,375,332.61,343.4,338.65Z"/><path class="cls-2" d="M364.34,257.66C364.26,279.52,378.63,363.85,419,344,444.4,311.64,421.57,308.33,364.34,257.66Z"/><path class="cls-2" d="M438.29,187.76c-16.37,13.41-46.45,78.14-6.78,89.39C464.62,282.56,455.69,213.85,438.29,187.76Z"/><path class="cls-2" d="M498.63,260.38c-25.32,9.42-77.27,55.41-59.24,77.78C476,368.9,499,286,498.63,260.38Z"/><path class="cls-2" d="M515,342.42c-28.61,12.52-102.31,38-75.35,77.4C485.18,455.64,501.72,368.44,515,342.42Z"/><path class="cls-2" d="M519.63,423.08c-45.23,17.95-107.35,44.42-73.69,80C479.58,539.76,514.69,446.41,519.63,423.08Z"/></g></svg>