<svg id="Layer_1" data-name="Layer 1" xmlns="http://www.w3.org/2000/svg" viewBox="0 0 850 850"><defs><style>.cls-1{fill:#fff;}</style></defs><title>Icons-SoilLife</title><g id="white_imagery_text" data-name="white imagery + text"><path class="cls-1" d="M419.48,493l10.69-.77-1.05,170.06c-6.55,5.15-14.37-.93-18.55-4.25Z"/><path class="cls-1" d="M332.66,414.27c4.51,28.92,38,108.24,71.81,81.46C435.15,466.74,361,411.33,332.66,414.27Z"/><path class="cls-1" d="M343.4,335.65c-1.94,30.87,39.13,106.15,72,85.41C445.78,392.39,375,329.61,343.4,335.65Z"/><path class="cls-1" d="M364.34,254.66C364.26,276.52,378.63,360.85,419,341,444.4,308.64,421.57,305.33,364.34,254.66Z"/><path class="cls-1" d="M438.29,184.76c-16.37,13.41-46.45,78.14-6.78,89.39C464.62,279.56,455.69,210.85,438.29,184.76Z"/><path class="cls-1" d="M498.63,257.38c-25.32,9.42-77.27,55.41-59.24,77.78C476,365.9,499,283,498.63,257.38Z"/><path class="cls-1" d="M515,339.42c-28.61,12.52-102.31,38-75.35,77.4C485.18,452.64,501.72,365.44,515,339.42Z"/><path class="cls-1" d="M519.63,420.08c-45.23,17.95-107.35,44.42-73.69,80C479.58,536.76,514.69,443.41,519.63,420.08Z"/></g></svg>