<svg id="Layer_1" data-name="Layer 1" xmlns="http://www.w3.org/2000/svg" viewBox="0 0 850 850"><defs><style>.cls-1{fill:none;stroke:#fff;stroke-miterlimit:10;stroke-width:6.72px;}.cls-2{fill:#fff;}</style></defs><title>Icons-SoilLife</title><path class="cls-1" d="M387.07,241.5c40.4,0,188.87,57.87,192.15,183.42,40.4,18.56,64.42,85.16-27.29,103.72C529,572.31,369.84,635.52,291.63,593.92,199.57,542.25,202.56,262.25,387.07,241.5Z"/><path class="cls-2" d="M330.3,373.61c-13.1-25.11-22.93-85.16,6.55-91.72C358.68,280.81,353.22,332.12,330.3,373.61Z"/><path class="cls-2" d="M350.66,385.23c.39-15.28,11.3-85.16,41.87-69.87C406.68,322.86,396.13,350.3,350.66,385.23Z"/><path class="cls-2" d="M356.47,406.36c18.94-14.19,47.73-57,54-20.44C408.3,405.57,415,433.66,356.47,406.36Z"/><path class="cls-2" d="M349.21,429.88c28.39,7.41,52.94,11.56,34.26,60.59C370.9,515,356.6,491.66,349.21,429.88Z"/><path class="cls-2" d="M331.53,459.32c-4.75,22.74-36.16,95.37,6.94,86.44C359.54,540.19,354.13,495.37,331.53,459.32Z"/><path class="cls-2" d="M312.85,463.56c-17.26,7.64-55.4,39.35-38,73.14C287.94,553.08,308.28,534.52,312.85,463.56Z"/><path class="cls-2" d="M317.58,428.2c-23.31-13.1-58.25-28.18-58.25,16.38C259.33,472,279.29,486.85,317.58,428.2Z"/><path class="cls-2" d="M325.5,403.09c-2.85-27.3-15.31-65.5-37-50.22C276.36,362.27,256.4,388.89,325.5,403.09Z"/></svg>