<svg id="Layer_1" data-name="Layer 1" xmlns="http://www.w3.org/2000/svg" viewBox="0 0 850 850"><defs><style>.cls-1{fill:#5f5353;stroke-width:13.44px;}.cls-1,.cls-2{stroke:#fff;stroke-miterlimit:10;}.cls-2{fill:none;stroke-width:6.72px;}.cls-3{fill:#fff;}</style></defs><title>Icons-SoilLife</title><circle class="cls-1" cx="423.71" cy="427.5" r="386.86"/><g id="white_imagery_text" data-name="white imagery + text"><path class="cls-2" d="M387.07,244.5c40.4,0,188.87,57.87,192.15,183.42,40.4,18.56,64.42,85.16-27.29,103.72C529,575.31,369.84,638.52,291.63,596.92,199.57,545.25,202.56,265.25,387.07,244.5Z"/><path class="cls-3" d="M330.3,376.61c-13.1-25.11-22.93-85.16,6.55-91.72C358.68,283.81,353.22,335.12,330.3,376.61Z"/><path class="cls-3" d="M350.66,388.23c.39-15.28,11.3-85.16,41.87-69.87C406.68,325.86,396.13,353.3,350.66,388.23Z"/><path class="cls-3" d="M356.47,409.36c18.94-14.19,47.73-57,54-20.44C408.3,408.57,415,436.66,356.47,409.36Z"/><path class="cls-3" d="M349.21,432.88c28.39,7.41,52.94,11.56,34.26,60.59C370.9,518,356.6,494.66,349.21,432.88Z"/><path class="cls-3" d="M331.53,462.32c-4.75,22.74-36.16,95.37,6.94,86.44C359.54,543.19,354.13,498.37,331.53,462.32Z"/><path class="cls-3" d="M312.85,466.56c-17.26,7.64-55.4,39.35-38,73.14C287.94,556.08,308.28,537.52,312.85,466.56Z"/><path class="cls-3" d="M317.58,431.2c-23.31-13.1-58.25-28.18-58.25,16.38C259.33,475,279.29,489.85,317.58,431.2Z"/><path class="cls-3" d="M325.5,406.09c-2.85-27.3-15.31-65.5-37-50.22C276.36,365.27,256.4,391.89,325.5,406.09Z"/></g></svg>