<svg id="Layer_1" data-name="Layer 1" xmlns="http://www.w3.org/2000/svg" viewBox="0 0 850 850"><defs><style>.cls-1{fill:#5f5353;stroke-width:13.44px;}.cls-1,.cls-2{stroke:#fff;stroke-miterlimit:10;}.cls-2{fill:none;stroke-width:6.72px;}.cls-3{fill:#fff;}</style></defs><title>Icons-SoilLife</title><circle class="cls-1" cx="423.35" cy="427.5" r="386.86"/><g id="white_imagery_text" data-name="white imagery + text"><path class="cls-2" d="M611.55,455.37l-26.44-8.1-24.23-61.58L548.76,318h30.47C593,340.87,619.82,379.69,611.55,455.37Z"/><circle class="cls-2" cx="423.35" cy="427.16" r="190.28"/><path class="cls-2" d="M341.37,255.39l9.54,23.29-46.44,56.54L253,380.64l-11.14-10.79C245.92,336.14,296.37,272.06,341.37,255.39Z"/><path class="cls-2" d="M481.59,246v21.61l-58.24,20.19-72.44-9.09-9.54-23.29C359,235.28,446.24,230.48,481.59,246Z"/><path class="cls-2" d="M579.23,318H548.76l-67.17-50.44V246C530.41,259.25,551.15,288.7,579.23,318Z"/><path class="cls-2" d="M534.45,581.65l8.26-72.8,42.39-61.58,26.44,8.1C612.36,489.66,571.94,560.61,534.45,581.65Z"/><path class="cls-3" d="M459.34,614l-59-32.38,11.11-67.19,74.7-38.93,56.53,33.32-8.26,72.8C528.2,586,495.34,610.61,459.34,614Z"/><path class="cls-2" d="M312.25,581.65l5.34-12.24,82.78,12.24,59,32.38C435.7,623.92,353.43,617.44,312.25,581.65Z"/><path class="cls-2" d="M236.69,464.26l9.23-8.89,45.43,45.4,26.24,68.64-5.34,12.24C286.1,565.8,237.24,500.77,236.69,464.26Z"/><path class="cls-2" d="M253,380.64l-7.07,74.73Z"/><polygon class="cls-3" points="304.47 335.22 350.91 386.69 341.37 467.45 291.35 500.77 245.92 455.37 252.99 380.64 304.47 335.22"/><polygon class="cls-2" points="423.35 348.34 350.91 386.69 304.47 335.22 350.91 278.69 423.35 287.77 423.35 348.34"/><polygon class="cls-3" points="495.26 398.81 423.35 348.34 423.35 287.77 481.59 267.58 548.76 318.02 560.88 385.69 495.26 398.81"/><polygon class="cls-2" points="486.18 475.53 495.26 398.81 560.88 385.69 585.1 447.27 542.71 508.84 486.18 475.53"/><polygon class="cls-2" points="341.37 467.45 411.48 514.46 400.37 581.65 317.6 569.41 291.35 500.77 341.37 467.45"/></g></svg>