<svg id="Layer_1" data-name="Layer 1" xmlns="http://www.w3.org/2000/svg" viewBox="0 0 850 850"><defs><style>.cls-1{fill:none;stroke:#fff;stroke-miterlimit:10;stroke-width:6.72px;}.cls-2{fill:#fff;}</style></defs><title>Icons-SoilLife</title><path class="cls-1" d="M611.55,452.37l-26.44-8.1-24.23-61.58L548.76,315h30.47C593,337.87,619.82,376.69,611.55,452.37Z"/><circle class="cls-1" cx="423.35" cy="424.16" r="190.28"/><path class="cls-1" d="M341.37,252.39l9.54,23.29-46.44,56.54L253,377.64l-11.14-10.79C245.92,333.14,296.37,269.06,341.37,252.39Z"/><path class="cls-1" d="M481.59,243v21.61l-58.24,20.19-72.44-9.09-9.54-23.29C359,232.28,446.24,227.48,481.59,243Z"/><path class="cls-1" d="M579.23,315H548.76l-67.17-50.44V243C530.41,256.25,551.15,285.7,579.23,315Z"/><path class="cls-1" d="M534.45,578.65l8.26-72.8,42.39-61.58,26.44,8.1C612.36,486.66,571.94,557.61,534.45,578.65Z"/><path class="cls-2" d="M459.34,611l-59-32.38,11.11-67.19,74.7-38.93,56.53,33.32-8.26,72.8C528.2,583,495.34,607.61,459.34,611Z"/><path class="cls-1" d="M312.25,578.65l5.34-12.24,82.78,12.24,59,32.38C435.7,620.92,353.43,614.44,312.25,578.65Z"/><path class="cls-1" d="M236.69,461.26l9.23-8.89,45.43,45.4,26.24,68.64-5.34,12.24C286.1,562.8,237.24,497.77,236.69,461.26Z"/><path class="cls-1" d="M253,377.64l-7.07,74.73Z"/><polygon class="cls-2" points="304.47 332.22 350.91 383.69 341.37 464.45 291.35 497.77 245.92 452.37 252.99 377.64 304.47 332.22"/><polygon class="cls-1" points="423.35 345.34 350.91 383.69 304.47 332.22 350.91 275.69 423.35 284.77 423.35 345.34"/><polygon class="cls-2" points="495.26 395.81 423.35 345.34 423.35 284.77 481.59 264.58 548.76 315.02 560.88 382.69 495.26 395.81"/><polygon class="cls-1" points="486.18 472.53 495.26 395.81 560.88 382.69 585.1 444.27 542.71 505.84 486.18 472.53"/><polygon class="cls-1" points="341.37 464.45 411.48 511.46 400.37 578.65 317.6 566.41 291.35 497.77 341.37 464.45"/></svg>