<svg id="Layer_1" data-name="Layer 1" xmlns="http://www.w3.org/2000/svg" viewBox="0 0 850 850"><defs><style>.cls-1{fill:#5f5353;stroke:#fff;stroke-miterlimit:10;stroke-width:13.44px;}.cls-2{fill:#fff;}</style></defs><title>soilbiology_gray</title><circle class="cls-1" cx="424.99" cy="428" r="386.86"/><path class="cls-2" d="M430.53,219.73s-58.19,0-62.29,59c-1.05,15.18,31.47,12.89,49.77,10.31,1.48,25,6.39,118.87-1.88,143.67,0,0-.67,6.52,17.52,5.93s21.81-11.75,21.81-11.75,7.45-14.1-13.66-138c18.05,2.64,51.8,5.42,51-10.13C490,221.78,430.53,219.73,430.53,219.73Z"/><path class="cls-2" d="M526.12,330.65s35.47,0,38,36c.64,9.24-19.18,7.85-30.33,6.28-.9,15.21-3.9,72.45,1.14,87.57,0,0,.41,4-10.68,3.61s-13.29-7.16-13.29-7.16-4.54-8.59,8.32-84.13c-11,1.61-31.57,3.3-31.09-6.17C489.91,331.9,526.12,330.65,526.12,330.65Z"/><path class="cls-2" d="M592.79,604.4S612.1,565.6,582,533.47s-62.55-1.64-62.55-1.64-30.19,26.87-5.32,55.75,48,12.44,53.16,8.86c0,0,23.91-17.55,4.63-46.48,0,0-19.82-25.35-43.07-6.71,0,0-19.74,16.26-3.47,34,0,0,6.36,7.83,14.78,6,0,0,5-1.59-.12-3.94,0,0-15.41-4.47-9.66-20.4,0,0,7.92-18.77,26.23-6,0,0,18.11,12.75,5.88,29.44,0,0-10.9,15.14-29.22,5.45-23-12.14-12.77-35.2-12.77-35.2s5.87-20.48,32.68-18.89c0,0,28.12,2,33.47,34.39,0,0,4,15.42,2.63,27.22C589.28,595.31,589.14,608.09,592.79,604.4Z"/><path class="cls-2" d="M474.32,518.93s15.84-12.85,13.34-20.41c-3.43-10.38-19.45-7.44-19.45-7.44s-16,5.71-15.25-14.36c.64-16.79-12.2-14.53-12.2-14.53s-7.8-1-10.3,7.61c-5,17.26-19.07,10.38-19.07,10.38-14-6-21.35,2.08-21.35,2.08-11.82,15.22,8.77,28.36,8.77,28.36,11.44,9,.76,13.15.76,13.15s-11.06,4.85-3.81,20.07,22.12,0,22.12,0c19.07-13.15,35.46,2.42,35.46,2.42S471.25,564.85,480.8,558c12.58-9-4.2-25.6-4.2-25.6C465.93,523.77,474.32,518.93,474.32,518.93Zm-29.47-.28c-6.06,3.09-13.15,2.08-15.83-2.25s.06-10.35,6.12-13.44,13.14-2.07,15.83,2.26S450.91,515.56,444.85,518.65Z"/><path class="cls-2" d="M169.63,550.05s-17.24-45.38,20.62-68.91c26.45-16.45,59.16-7.46,59.16-7.46s30.9,7.17,32.66-14.7c1.39-17.23-19.57-33.13-19.57-33.13S245,412.83,235.72,398c-8.94-14.31-10.3-37.71,11.79-53.44,51.94-37,73.74,45.12,73.74,45.12s8.49,37.44,29.87,19.77c24.41-20.18-6.86-39.28-6.86-39.28S322.88,358.75,319,345.49c-3.44-11.63,18.31-4.69,18.31-4.69s73.46,25.11,42.64,74.95c-17.36,28.07-47.28,28.43-63.27,13-13.55-13-17.7-33.33-17.7-33.33s-11.31-41.53-34.09-29.73c-26.3,13.63,9.23,41.27,9.23,41.27s42,25,28.34,63.08-57.24,27.1-57.24,27.1-26.35-6-37.53,2.16c-22.84,16.74-18.51,40.6-18.51,40.6s.24,13.38-11.21,15.19C170.6,556.27,169.63,550.05,169.63,550.05Z"/><path class="cls-2" d="M697,482c-3.57-3.17-6-12.28-6-12.28-4.35-.39-9.52-4.11-9.52-4.11a25.29,25.29,0,0,0-8.29-10.93c.79-13.06-7.52-13.46-7.52-13.46-28.51-53.84-80-27.71-80-27.71S564,424.23,563.18,438.88,577,468.57,577,468.57a68.63,68.63,0,0,0,9.43,9.7c-1.13,1.42-3.6,3.18-8.64,2.18,0,0-7.12,10.16-7.52,17.36,0,0,5.94-11.73,9.9-11.77,0,0,4.75,2.82,11.48,0,0,0,.79,7.07,3.57,8.66,0,0,3.16,15.44,7.52,20.59,0,0,0-16.23-5.54-22.74s-2-5.55-2-5.55a4,4,0,0,0,5.83.65,44.71,44.71,0,0,0,8,2.69c9.62,2.21,19.23,1.08,26.39-.58,1.43,3.53,3.22,9.6.53,13.17-4,5.23-9.5,15.92-9.5,15.92s22.9-13.47,13.11-30.17a61.64,61.64,0,0,0,7.48-2.64s7.14,4.46,13.93,6a32.75,32.75,0,0,0,3.89,12.56,40.3,40.3,0,0,0,4.75,14.25c2.16-9.27-2-21.43-3.86-26.33,2.71-.14,5-1.18,6.23-3.76A29.33,29.33,0,0,0,673.65,469a12.4,12.4,0,0,0,5.66,1c.4.1.88.18,1.43.27-.78,10.48-1.55,19-1.55,19l4.35-6.73a34.69,34.69,0,0,0-.48-11.95c12.59,1.12,9.19,29.37,9.19,29.37C696.22,493.51,697,482,697,482Z"/><path class="cls-2" d="M404.39,590.65h0a15.32,15.32,0,0,0-2-1.6,132.2,132.2,0,0,1-33-39.61h0A14.13,14.13,0,1,0,344.26,562h0c24.31,44.62,42.65,52.35,42.65,52.35h0a14.84,14.84,0,0,0,17.48-23.72Z"/><path class="cls-2" d="M321.49,565.34h0a12.62,12.62,0,0,0-1-1.7A102.2,102.2,0,0,1,307.66,526h0A10.91,10.91,0,1,0,286,528.08h0c5.2,38.89,16.29,49.53,16.29,49.53h0a11.32,11.32,0,0,0,4.72,3.38,11.46,11.46,0,0,0,14.44-15.65Z"/></svg>