<svg id="Layer_1" data-name="Layer 1" xmlns="http://www.w3.org/2000/svg" viewBox="0 0 850 850"><defs><style>.cls-1{fill:#5f5353;stroke:#fff;stroke-miterlimit:10;stroke-width:13.44px;}.cls-2{fill:#fff;}</style></defs><title>soilchemistry_gray</title><circle class="cls-1" cx="424.56" cy="429.17" r="386.86"/><path class="cls-2" d="M441.61,506.89c-7.23-3-14.33-2.33-21.46,1.33,3.56-8.06,2.32-14.81-3.39-19.12a14.28,14.28,0,0,0-17.54.43,14.11,14.11,0,0,0-3.47,17.21c3.32,6.42,9.73,8.84,18.29,6.66-9.06,12.2-5.66,25.58,2,32.78A23.79,23.79,0,0,0,453.6,518,23,23,0,0,0,441.61,506.89Z"/><path class="cls-2" d="M425.13,464.64a8.08,8.08,0,0,0-8.19,7.95v.12a8.24,8.24,0,0,0,16.47.73c0-.17,0-.34,0-.51a8.16,8.16,0,0,0-8-8.29Z"/><path class="cls-2" d="M435.92,444.62a16.16,16.16,0,0,0-14,.87c2.33-5.26,1.49-9.67-2.24-12.49a9.31,9.31,0,0,0-11.46.29,9.22,9.22,0,0,0-2.27,11.24c2.17,4.2,6.37,5.78,11.95,4.35-5.91,8-3.7,16.71,1.34,21.41a15.56,15.56,0,0,0,24.5-18.44A15.06,15.06,0,0,0,435.92,444.62Z"/><path class="cls-2" d="M425.15,417a5.25,5.25,0,0,0-5.34,5.18v.09a5.38,5.38,0,0,0,10.75.15h0a5.33,5.33,0,0,0-5.23-5.42Z"/><path class="cls-2" d="M599.9,548.08c-.21-.44-.44-.87-.65-1.3q-42.72-79.2-85.42-158.41a10.33,10.33,0,0,1-1.17-4.65q-.1-67.65-.06-135.29v-3c6.08-.78,7.46-2.38,7.47-8.24v-2c0-5.47-1.91-7.37-7.39-7.37-27.26,0-54.54.09-81.84-.07-7.68,0-10,1.33-9.63,9.52.27,6,1.32,7.43,7.39,8.17,0,.69.12,1.27.12,1.84V384.54a7.78,7.78,0,0,1-1,3.55Q414,413.7,400.17,439.3q-19.46-36-38.89-72.12a6.59,6.59,0,0,1-.77-3q-.06-44.19,0-88.37v-2c4-.51,4.86-1.55,4.86-5.38v-1.33c0-3.58-1.25-4.83-4.82-4.83-17.81,0-35.63.07-53.44,0-5,0-6.51.87-6.27,6.24.16,3.89.84,4.85,4.82,5.34,0,.44.08.82.08,1.2v89.7a5.09,5.09,0,0,1-.62,2.32q-24.24,45-48.54,90L249,471.18l-.19.36a33.58,33.58,0,0,0,29.77,48.17h78.26l-3.34,6.15q-5.84,10.82-11.69,21.64c-.1.18-.19.36-.28.55a51.4,51.4,0,0,0,45.56,73.75H553.85a51.4,51.4,0,0,0,46-73.76Zm-113-289a16.76,16.76,0,0,1,.14-2.92,5.85,5.85,0,0,1,5.71-4.57,5.76,5.76,0,0,1,6,4.54,21,21,0,0,1,.2,3.8V376.16c0,4.52-2.2,7-6,7a5.75,5.75,0,0,1-6-5.54c-.06-.67,0-1.36,0-2ZM343.65,282.75a11,11,0,0,1,.1-1.9,3.91,3.91,0,0,1,7.59,0,13.71,13.71,0,0,1,.14,2.48v75.91c0,2.95-1.43,4.59-3.91,4.6a3.81,3.81,0,0,1-3.89-3.62v-1.33Zm11.52,230.74H282.72a28.27,28.27,0,0,1-25.33-40.86h0l.12-.21c.19-.37.38-.73.58-1.09l.79-1.48,22.62-41.64Q289.21,414,297,399.79l1-1.84a50.67,50.67,0,0,0,16.65,3.63c10,.35,18.92-3.08,27.37-8.08l7.87-4.67a17.68,17.68,0,0,1,1.83-.95c7.06-3.6,11.15-2.31,14.82,4.68l13.28,25.28,15.75,30q-17.7,32.87-35.42,65.67Zm192.64,98.86H393.6a43.27,43.27,0,0,1-38.77-62.55h0l.17-.32c.28-.57.58-1.12.89-1.67l1.21-2.26q17.29-31.89,34.62-63.76,11.83-21.77,23.7-43.51l1.56-2.86a77.76,77.76,0,0,0,25.48,5.6c15.33.54,29-4.76,41.87-12.37l12-7.15c.95-.54,1.9-1,2.85-1.52,10.8-5.51,17.07-3.53,22.68,7.17q10.17,19.37,20.34,38.7l31.5,59.95h0l.83,1.54,13.32,25.29a43.3,43.3,0,0,1-40,59.76Z"/></svg>