<svg id="Layer_1" data-name="Layer 1" xmlns="http://www.w3.org/2000/svg" viewBox="0 0 850 850"><defs><style>.cls-1{fill:#5f5353;stroke:#fff;stroke-miterlimit:10;stroke-width:13.44px;}.cls-2{fill:#fff;}</style></defs><title>soilfertility_gray</title><circle class="cls-1" cx="426.62" cy="428" r="386.86"/><path class="cls-2" d="M562,331a69.09,69.09,0,0,0-19,7.31c-12.34,6.9-22.31,16.24-30.86,27-8.37,10.59-14.49,22.31-19.77,34.49-4.52,10.45-8.95,20.91-11.15,32-1.06,5.35-1.51,10.74.72,15.93.79,1.8.33,2.74-1.05,4a89.25,89.25,0,0,1-37.39,19.85c-2.63.68-2.66.67-3.13-1.86-3.18-17.27-2.22-34.44,1.29-51.54,0,0,3.82-31.87,18.64-57.68l-.08-.12a95.39,95.39,0,0,1,5.64-9.56c-.39.67-.85,1.49-1.35,2.35.55-1,1-1.74,1.35-2.35,2.52-3.8,5.19-7.44,7.46-10.45a2.11,2.11,0,0,1,2.47-.93c3.13.71,6.18,0,9.14-1.19,5.86-2.41,10.49-6.38,14.6-10.88,7-7.63,12.67-16,14.22-25.83,2-12.79-.41-19.75-.41-19.75a40.16,40.16,0,0,0-11.25-19.27c-.27-.25-.49-.56-.73-.8l-.54,0c-2.43,5-4.83,10-7.42,14.91l-10.13,17.2c-4.52,7.67-9.08,15.28-12.89,23.32a28.13,28.13,0,0,0-3.17,11.08,11.38,11.38,0,0,0,1.45,6.39c.45.8.92.87,1.58.12,8.82-9.51,17.77-18.93,24-30.15a69,69,0,0,0,3.68-7.72,2.6,2.6,0,0,1,.8-1.33c.47.47.13.9,0,1.29a81.17,81.17,0,0,1-11.53,21.22c-6,8.24-12.85,15.83-19.43,23.63a145.56,145.56,0,0,0-10.13,15h0s-.86,1.41-2.05,3.58h0a96.79,96.79,0,0,0-6.85,14.64,1.24,1.24,0,0,1-.74-1.11,265.5,265.5,0,0,0-8-28c-4.6-13.82-9.82-27.49-13.31-41.64-2.84-11.46-4.47-23-3.64-34.83,0-.62-.2-1.37.73-1.82a3.55,3.55,0,0,1,.34,2.21,97.55,97.55,0,0,0,.66,12.44c2.18,18.44,9.21,35.58,15.94,52.77.53,1.34,1.2,1.41,2.28.53a18.83,18.83,0,0,0,5.75-8.27c2.07-5.47,2.34-11.16,2.05-16.88-.65-12.87-2.55-25.53-4.39-38.25l-4.13-28.54c-.74-8-1.18-16.08-1.67-24.12l-.76-.17a14.64,14.64,0,0,1-1.51.8,68.1,68.1,0,0,0-26.93,21.83s-7.48,8.63-12.11,27.38c-3.6,14.43-.53,28.73,4.76,42.4,3.1,8.11,7.23,15.7,14,21.71,3.41,3,7.28,5.32,12,5.73a2.81,2.81,0,0,1,2.91,2.41,413.1,413.1,0,0,1,9,42.61,14.38,14.38,0,0,1-1,8.3,215.78,215.78,0,0,0-9.62,27.48c-.13.45,0,1.13-.67,1.23s-.8-.55-1.13-.91c-1.84-2-3.58-4.11-5.47-6.09C414.31,403.7,403,394.71,392,385.52a255.52,255.52,0,0,1-23.23-21.09c-8.2-8.68-15-18.18-18.68-29.41a47.16,47.16,0,0,1-2-8.41.73.73,0,0,1,.35.45c3,12.93,10.08,23.71,19.41,33.31,11.47,11.87,25.09,21.38,38.18,31.51,1.06.81,1.67.65,2.11-.58a17.14,17.14,0,0,0,.42-9.9c-1.59-7.1-5.63-13.06-10.07-18.76-7.2-9.2-15.06-18-22.59-27-4.52-5.39-9-10.78-12.58-16.83-4.91-8.34-8.14-17.3-11.19-26.34-.87-2.56-1.1-2.64-3.12-.85-15.42,13.61-22,30.37-19.34,50.23,1.85,13.71,8.29,25.46,18,35.69,8.65,9.16,18.5,16.83,30.55,21.64,7.2,2.86,14.53,4.2,22,.8.84-.38,1.36.09,1.84.59,1.65,1.61,3.31,3.18,4.94,4.78,7.49,7.39,14.57,15.1,20.39,23.78a5,5,0,0,1,.93,4,142.85,142.85,0,0,0-2.4,19.73,186.17,186.17,0,0,0,2.63,37c.38,2.41.24,2.51-2.27,2q-9.28-2-18.31-4.82c-17.5-5.56-33.82-13.27-48.43-24-23.41-17.22-38.5-39.4-44.06-67.14a101.73,101.73,0,0,1-1.84-14.42,4.14,4.14,0,0,1,.38.55c.06.43.12.86.16,1.3,2.82,24.85,13.25,46.34,31.76,64.24a130.85,130.85,0,0,0,30.39,21.56c1.74.91,2.14.7,2.23-1.18a19.22,19.22,0,0,0-1.32-7.66c-2.45-6.43-6.31-12.13-10.55-17.56a232.58,232.58,0,0,1-33.24-59.5c-5.73-14.76-9.54-30-13.28-45.3-.26-1,0-2.66-1.24-2.91s-1.84,1.19-2.55,2c-14.73,16.95-22.51,36.4-22.84,58.38-.32,21.3,7.29,40.14,21,56.8,10,12.06,22,21.71,37.6,26.73,6.79,2.17,13.68,2.91,20.33-.59,1-.54,1.72-.08,2.52.36,3.46,1.89,6.87,3.85,10.39,5.63A208.82,208.82,0,0,0,428.08,500c1.26.32,2.27.66,2.54,2.15,2.92,16.18,6.24,34.57,7.46,51,.35,4.65.56,10.62.72,16v3.09c-1.42-.86-2.86-1.72-4.33-2.53-12.83-7.12-26.48-12.56-40-18.23a282.74,282.74,0,0,1-29-13.6c-10.66-6-20.26-13.06-27.63-22.58a52.34,52.34,0,0,1-4.77-7.34.79.79,0,0,1,.49.33c7.26,11.26,17.63,19.52,29.66,26,14.84,8,30.86,13.33,46.58,19.37,1.28.49,1.77.16,1.76-1.11a17.45,17.45,0,0,0-3-9.37c-3.95-6.21-9.79-10.72-15.9-14.88-9.92-6.74-20.26-12.87-30.39-19.3a143.78,143.78,0,0,1-17.58-12.41c-7.48-6.51-13.6-14-19.58-21.71-1.7-2.17-1.94-2.18-3.21,0-9.71,16.79-10.13,34.2-.73,52.07,6.44,12.34,16.57,21.61,29.17,28.64,11.26,6.28,23.13,10.86,36.06,12.17,7.71.81,15,.1,20.84-5.06.65-.58,1.3-.28,1.95,0,2.1,1.06,4.2,2.1,6.28,3.17a188.08,188.08,0,0,1,23.34,14c-.26,9.45-1.15,23-4.06,31.6-4.85,14.47,22.84-1.75,22.84-1.75s.4-32.44-1.3-52.26h0c0-.67-.08-1.33-.12-2,7.75-8.53,15.83-16.79,24.36-24.7a2.69,2.69,0,0,1,3.23-.67c3.61,1.45,7.49,1.2,11.37.28,7.72-1.84,14.31-5.78,20.39-10.46,10.33-8,19.34-17.07,23.63-28.68,5.61-15.13,4.36-24,4.36-24a46.82,46.82,0,0,0-8.92-25.44,12,12,0,0,1-.68-1.15l-.63-.15c-4.19,5.63-8.34,11.2-12.69,16.69l-16.58,19c-7.37,8.45-14.8,16.88-21.37,25.84-2.93,4-5.46,8.18-6.58,12.86a13.94,13.94,0,0,0,.18,8c.37,1,.93,1.22,1.9.45,13.05-9.89,26.24-19.63,36.58-32.07a91.39,91.39,0,0,0,6.4-8.68,3.47,3.47,0,0,1,1.3-1.47c.45.66-.07,1.12-.33,1.57-5,8.77-11.72,16.48-19.21,23.67-9.26,8.85-19.49,16.81-29.4,25-6.22,5.16-12.28,10.45-18,16.08-.5-5.09-1.23-10.58-2.34-17.61-2.53-16.15-6.61-31.84-10.27-47.84-.57-2.48-.58-2.47,1.91-3.21a94.61,94.61,0,0,0,41.84-25.49c9.42-9.86,16.58-21.13,22.91-32.92,7.36-13.75,13.44-28.06,20.44-42,2.76-5.41,5.53-10.77,8.8-15.88-7.66,14.43-13.54,29.55-20,44.4-7.37,16.89-15.38,33.38-27.68,47.65-.92,1.07-.74,1.77.65,2.15a11.47,11.47,0,0,0,1.93.34c5.92.57,11-1.51,15.81-4.47a64.33,64.33,0,0,0,17.79-17.07c14.63-20.06,22.9-42.54,27.8-66.31a340.15,340.15,0,0,1,9.13-36.11C565,330.69,564.76,330.43,562,331Z"/></svg>