<svg id="Layer_1" data-name="Layer 1" xmlns="http://www.w3.org/2000/svg" viewBox="0 0 850 850"><defs><style>.cls-1{fill:none;stroke:#fff;stroke-miterlimit:10;stroke-width:5.69px;}.cls-2{fill:#fff;}</style></defs><title>soilgenesis_white</title><line class="cls-1" x1="424.96" y1="399.42" x2="549.47" y2="551.83"/><line class="cls-1" x1="424.96" y1="399.42" x2="300.43" y2="551.83"/><line class="cls-1" x1="424.96" y1="527.43" x2="424.96" y2="272.75"/><circle class="cls-2" cx="424.96" cy="277.21" r="68.2"/><circle class="cls-2" cx="424.96" cy="399.42" r="34.65"/><path class="cls-2" d="M487.84,501.47h0c-.26.39-.51.8-.76,1.19a73.42,73.42,0,0,0-7.64,62.16l.47,1.36c.14.42.28.85.44,1.27a73.75,73.75,0,1,0,8.25-67.12c-.27.38-.51.77-.76,1.14"/><path class="cls-2" d="M476.63,570.37c-.17-.4-.34-.81-.49-1.19a78.16,78.16,0,0,1,8.77-71.48l.77-1.07a67.73,67.73,0,0,0-121.45,0l.76,1.07a78.14,78.14,0,0,1,8.78,71.48c-.16.4-.33.81-.49,1.19h0a67.68,67.68,0,0,0,103.35,0Z"/><path class="cls-2" d="M362.83,502.66c-.25-.39-.5-.8-.77-1.19s-.49-.76-.75-1.14a73.68,73.68,0,1,0,8.24,67.12c.16-.42.3-.85.45-1.27l.46-1.36a73.46,73.46,0,0,0-7.63-62.16Z"/></svg>