<svg id="Layer_1" data-name="Layer 1" xmlns="http://www.w3.org/2000/svg" viewBox="0 0 850 850"><defs><style>.cls-1{fill:#5f5353;stroke-width:13.44px;}.cls-1,.cls-2{stroke:#fff;stroke-miterlimit:10;}.cls-2{fill:#fff;stroke-width:2px;}</style></defs><title>soilhealth_gray</title><circle class="cls-1" cx="425.07" cy="426.58" r="386.86"/><path class="cls-2" d="M360.27,457.11s44.25,35.12,101.3,41.71c0,0-11.58,39.19-27.68,65.51-21,34.33-39.66,38.81-64.86,31-20.35-6.31-33.21-33.29-30-57C344.06,501.76,360.27,457.11,360.27,457.11Z"/><path class="cls-2" d="M274.53,558c12.65,1,25.43,1.92,37.5,5.69a73.67,73.67,0,0,1,30.8,18.48c5.46,5.61,10.08,12.33,17.18,15.87,7.64,3.81,16.77,3.22,25.11,5.27s16.93,9.11,14.88,17.14l-90.57.5c-9.77.06-19.72.09-29.07-2.67-7.2-2.12-13.78-5.82-20.28-9.49C249.13,602.63,211.9,587,216,573.55,221.49,555.52,261,557,274.53,558Z"/><path class="cls-2" d="M388.8,542.71s12.05-24.66,19.49-42"/><polyline class="cls-2" points="487.91 272.17 374.62 580.65 504.27 278.16 487.91 272.17 504.27 278.16 487.91 272.17"/><path class="cls-2" d="M477.14,289.18l-6.32,18.09s-14.25,3-25.33-10.06-1.19-20.52-1.19-20.52-16-4.16-20.57-15.35,1.35-22.15,1.35-22.15A206.54,206.54,0,0,1,379.82,250c-24.44,2.78-41.69,1.26-45.68-8.55,0,0,30.84-.3,71.64-9.31,0,0,39.65-11,58.4.53S475,257,475,257s-1.7,5.1-10.78,8.11-5.68,12.22-5.68,12.22S459.34,284.51,477.14,289.18Z"/><path class="cls-2" d="M425.88,273.45c-3.45,1.41-18,7.27-28.63,10.1,0,0,6.5,7.61,20.53,2.42,11.48-4.24,15.56-6.87,16.66-7.69A46.11,46.11,0,0,1,425.88,273.45Z"/><line class="cls-2" x1="434.79" y1="278" x2="426.63" y2="273.14"/><path class="cls-2" d="M416.54,262.13c-2.28.86-24.39,9.08-42.05,9.64,0,0,8.37,8.45,25.7,4.38,13.77-3.24,20.08-5.09,22.09-5.72A24.7,24.7,0,0,1,416.54,262.13Z"/><line class="cls-2" x1="434.79" y1="278" x2="426.63" y2="273.14"/><path class="cls-2" d="M415.79,247a246.55,246.55,0,0,1-59.28,11.65S363.43,269,389,264.08c18.06-3.45,24.25-5.34,26.34-6.16A24.19,24.19,0,0,1,415.79,247Z"/><path class="cls-2" d="M500.5,297.74l-7.81,17.54s8.58,11.33,25.87,8.7,15.1-14.56,15.1-14.56,14.8,7.12,26,1.72S574,293.74,574,293.74a192.18,192.18,0,0,0,26.31,37c16.31,17.71,30.24,27.61,40,22.84,0,0-22.81-19.95-47-52.78,0,0-22-33.55-43.95-37s-24.9,11.28-24.9,11.28-2.26,4.89,2.43,12.94-4.22,12.75-4.22,12.75S517,305.64,500.5,297.74Z"/><path class="cls-2" d="M549.65,318.8c1.59,3.25,8.38,16.92,14.37,25.85,0,0-10.12,1.52-17-11.33-5.63-10.51-6.85-15.09-7.11-16.4A47.67,47.67,0,0,0,549.65,318.8Z"/><path class="cls-2" d="M564.46,316.32c1.1,2.1,11.91,22.38,24.7,34.1,0,0-12.1.95-22.2-13.17-8-11.23-11.47-16.65-12.54-18.4A26.7,26.7,0,0,0,564.46,316.32Z"/><path class="cls-2" d="M575.5,305.51a230.33,230.33,0,0,0,36.17,46.61s-12.3,3.27-28-16.69c-11.09-14.13-14.4-19.5-15.39-21.45A25.37,25.37,0,0,0,575.5,305.51Z"/><path class="cls-2" d="M474.88,380.35c-.81,0,7.43-.82,9.81-1.05a42.82,42.82,0,0,0,17.69-6.05c12.17-7.29,15.1-20.74,6.6-30.88-4.83-5.77-11.47-8.4-19-8.79-4.65-.24-6.12,2-5,5.88,0,0,4.41,13.26,17.1,13.38,0,5.06-2.94,9.33-10.88,11.67a81.61,81.61,0,0,1-17.88,1.66c-8.58,0-6-.35-14.62-.42"/><path class="cls-2" d="M497.53,271.66c7,2.53,15-1,17.59-7.67a13,13,0,0,0-7.88-16.74c-7-2.62-15,.79-17.65,7.5A13,13,0,0,0,497.53,271.66Z"/><path class="cls-2" d="M405.32,526.49c-1.82-3.75-4.14-7.3-5.6-10.89,1.78-.93,5.08-2,7.14-3.14,8.38-4.72,9.5-11,3.43-18.29-4.08-4.93-8.17-9.85-12-14.93-8.93-11.8-9.89-20-7.91-31.58,1.51-9,6.39-15.48,14.95-19.22a92.32,92.32,0,0,1,11.5-3.71,2.76,2.76,0,0,1,2.36.65c3.49,4.3,6.84,8.7,10.32,13.19-3.67,1.18-7.19,2.21-10.62,3.44-12.83,4.61-12.79,17.2-7.68,24.61,3.28,4.76,7,9.24,10.52,13.85,3.89,5.13,7.33,10.48,8.7,16.81,2.37,10.94-2.82,20.66-13.51,25.09C413.29,523.87,409.51,525,405.32,526.49Z"/><path class="cls-2" d="M427.56,489.45c9.63-2.32,20.46-9.6,25.91-17.47,5.91-8.51,6.8-17.42,2-26.58a67.05,67.05,0,0,0-6.88-10.5c-4.49-5.66-9.57-10.89-14-16.61-3-3.9-5.9-8.08-7.62-12.57-3.5-9.15.63-17.64,10-21.32,3.68-1.44,7.82-1.82,11.76-2.63a22.94,22.94,0,0,1,2.9-.66c-5.42-5.12-9.71-9.66-15.17-14.82-1.24.32-3.68.71-5,1.06-23.78,6.38-29.14,27.63-20.28,44.3,2.7,5.06,6.29,9.69,9.62,14.42,5.06,7.21,10.82,14,15.24,21.57,6.28,10.69,1,21.25-11.38,24.39-2.31.59-5.56,1.54-7.93,2.08C416.77,474.11,422.64,481.91,427.56,489.45Z"/><path class="cls-2" d="M434.82,328.18c-3.53,3.76-4.26,8.85,0,15.67a77,77,0,0,0,12.19,12.69c6.44,5.46,13.59,10.12,20.05,15.56a52.38,52.38,0,0,1,12.84,16.39c8.51,16.67.6,32.74-14.45,40.14-5.38,2.65-11.43,4.05-17,5.95L436.76,421c3.17-.63,6.29-.89,9.11-1.9,3.83-1.38,7.82-2.83,11.06-5.14,6.56-4.67,8.26-12.06,5.26-19.36-2.05-5-5.68-8.79-9.55-12.51.57.55-15.38-14.8-23.14-23a39.71,39.71,0,0,1-9-15.84c-4-13.22,3.1-25.13,16.47-27.26,7.59-1.22,14.37,1.07,20.25,5.59,3.63,2.79,3.2,5.37-.36,7.57C456.84,329.14,444.37,336.22,434.82,328.18Z"/><path class="cls-2" d="M409,492.59c-11.12,2.25-15.55,7.35-11.68,17.26,3,7.59,6.8,14.88,10.32,22.27A18.71,18.71,0,0,1,409,545.89c-1.36,4.67-5.9,9.72-10.92,11.76,1.17-2,2.23-3.95,3.38-5.82,3.1-5.08,2.83-10.26-.13-15.14-2.34-3.83-5.42-7.24-8-10.94-3.64-5.21-7.68-10.25-10.58-15.83-5.74-11.05-1.63-22.78,9.5-29.05,1.41-.79,3.71-2.15,5.16-2.88C401.13,482.75,405.24,487.87,409,492.59Z"/><path class="cls-2" d="M388.52,519.13c-8.51,2.17-17.32,8-19.22,16.73-.83,3.78-.26,9.21,1.75,11.94.19-13.65,10.75-18.88,23.52-20.27C394.57,527.53,392.72,524.66,388.52,519.13Z"/></svg>